<svg width="160" height="160" viewBox="0 0 160 160" fill="none" xmlns="http://www.w3.org/2000/svg">
<rect width="160" height="160" rx="24" fill="url(#paint0_linear_1_19337)"/>
<g filter="url(#filter0_d_1_19337)">
<path d="M138.863 89.4421L137.003 84.9459C135.66 81.7485 135.66 78.1515 137.003 75.0541L138.863 70.5579C141.343 64.7627 139.07 57.9684 133.697 54.771L132.663 54.1715L128.736 51.8734C126.256 50.3747 124.396 48.1765 123.466 45.4788C123.26 45.0791 123.156 44.6794 123.053 44.1798L121.606 38.6844C120.056 32.8893 114.683 28.8926 108.689 29.2923L101.662 29.7918C98.5624 29.9917 95.5657 28.9925 93.0856 27.0941L87.6088 22.6978C85.4388 20.8993 82.6487 20 79.962 20C77.2752 20 74.4852 20.8993 72.2118 22.6978L66.735 27.0941C64.2549 29.0924 61.2582 29.9917 58.1581 29.7918L51.1313 29.2923C45.1378 28.8926 39.7644 32.7893 38.2143 38.6844L36.7676 44.1798C35.941 47.3772 33.8742 50.0749 31.0842 51.7735L26.1241 54.6711C20.7506 57.8684 18.5806 64.6628 20.9573 70.458L22.8173 74.9542C24.1607 78.1515 24.1607 81.7485 22.8173 84.846L21.0606 89.4421C18.5806 95.3372 20.7506 102.032 26.2274 105.229L31.1875 108.226C33.9776 109.925 36.0443 112.623 36.871 115.82L38.3177 121.316C39.8677 127.111 45.2412 131.107 51.2346 130.708L58.2615 130.208C61.3615 130.008 64.4616 131.007 66.8383 132.906L72.3151 137.302C76.8619 140.899 83.2687 140.899 87.8155 137.302L90.5022 135.104C94.0156 132.306 97.839 131.907 102.799 133.206L123.983 139.9C124.086 139.9 124.293 139.9 124.293 139.7V117.619C124.293 114.022 126.153 110.624 129.15 108.526L132.457 106.228C132.87 105.928 133.387 105.529 133.8 105.229C133.903 105.129 134.007 105.029 134.213 105.029L134.833 104.629C138.14 102.231 140 98.3347 140 94.438C139.793 92.6395 139.483 91.0408 138.863 89.4421ZM91.7422 103.83C90.9156 106.228 89.2622 108.326 87.1955 109.725C85.1287 111.124 82.6487 111.923 79.962 111.923C74.5885 111.923 69.9384 108.626 68.1817 103.83L51.338 56.5695H67.1483L79.8586 96.3364L92.6723 56.5695H108.483L91.7422 103.83Z" fill="white"/>
<path d="M87.1955 109.725C89.2622 108.326 90.9156 106.228 91.7422 103.83L108.483 56.5695H92.6723L79.8586 96.3364L67.1483 56.5695H51.338L68.1817 103.83C69.9384 108.626 74.5885 111.923 79.962 111.923C82.6487 111.923 85.1287 111.124 87.1955 109.725Z" fill="white"/>
</g>
<path d="M87.1954 109.725C89.2621 108.326 90.9155 106.228 91.7422 103.83L108.483 56.5695H92.6722L79.8585 96.3364L67.1483 56.5695H51.3379L68.1816 103.83C69.9383 108.626 74.5884 111.923 79.9619 111.923C82.6486 111.923 85.1287 111.124 87.1954 109.725Z" fill="#FF6D75"/>
<defs>
<filter id="filter0_d_1_19337" x="14" y="18" width="132" height="132" filterUnits="userSpaceOnUse" color-interpolation-filters="sRGB">
<feFlood flood-opacity="0" result="BackgroundImageFix"/>
<feColorMatrix in="SourceAlpha" type="matrix" values="0 0 0 0 0 0 0 0 0 0 0 0 0 0 0 0 0 0 127 0" result="hardAlpha"/>
<feOffset dy="4"/>
<feGaussianBlur stdDeviation="3"/>
<feComposite in2="hardAlpha" operator="out"/>
<feColorMatrix type="matrix" values="0 0 0 0 0 0 0 0 0 0 0 0 0 0 0 0 0 0 0.1 0"/>
<feBlend mode="normal" in2="BackgroundImageFix" result="effect1_dropShadow_1_19337"/>
<feBlend mode="normal" in="SourceGraphic" in2="effect1_dropShadow_1_19337" result="shape"/>
</filter>
<linearGradient id="paint0_linear_1_19337" x1="80" y1="80" x2="147.5" y2="160" gradientUnits="userSpaceOnUse">
<stop stop-color="#FF6D75"/>
<stop offset="1" stop-color="#9C86FF"/>
</linearGradient>
</defs>
</svg>
